HIERARCHY
ROOT Hips
{
	OFFSET	0.00	0.00	0.00
	CHANNELS 6 Xposition Yposition Zposition Zrotation Xrotation Yrotation
	JOINT Spine
	{
		OFFSET	 0.00	0.01	 0.00
		CHANNELS 3 Zrotation Xrotation Yrotation
		JOINT Spine1
		{
			OFFSET	 0.00	 2.45913012437421	 0.00
			CHANNELS 3 Zrotation Xrotation Yrotation
            JOINT Neck
            {
                OFFSET	 0.00	 2.48462964506057	 0.00
                CHANNELS 3 Zrotation Xrotation Yrotation
                JOINT Head
                {
                    OFFSET	 0.00	 0.927524780924562	 0.00
                    CHANNELS 3 Zrotation Xrotation Yrotation
                    End Site 
                    {
                        OFFSET	 0.00	 1.14999962169752	 0.00
                    }
                }
            }
			JOINT LeftShoulder
			{
				OFFSET	 0.00	 2.48462964506057	 0.00
				CHANNELS 3 Zrotation Xrotation Yrotation
				JOINT LeftUpArm
				{
					OFFSET	 0.00	 1.24881979654096	 0.00
					CHANNELS 3 Zrotation Xrotation Yrotation
					JOINT LeftForeArm
					{
						OFFSET	 0.00	2.59758046908119	 0.00
						CHANNELS 3 Zrotation Xrotation Yrotation
						JOINT LeftHand
						{
							OFFSET	 0.00	2.45542024364365	 0.00
							CHANNELS 3 Zrotation Xrotation Yrotation
							JOINT LeftHandThumb 
							{
								OFFSET	 0.00	0.00	 0.00
								CHANNELS 3 Zrotation Xrotation Yrotation
								End Site
								{
									OFFSET	 0.00	0.00	1.00000003353624
								}
							}
							JOINT L_Wrist_End 
							{
								OFFSET	 0.00	0.99999967115358	 0.00
								CHANNELS 3 Zrotation Xrotation Yrotation
								End Site 
								{
									OFFSET	 0.00	 0.00	 0.00
								}
							}
						}
					}
				}
			}
			JOINT RightShoulder
			{
				OFFSET	 0.00	 2.48462964506057	 0.00
				CHANNELS 3 Zrotation Xrotation Yrotation
				JOINT RightUpArm
				{
					OFFSET	 0.00	 1.24881979654096	 0.00
					CHANNELS 3 Zrotation Xrotation Yrotation
					JOINT RightForeArm
					{
						OFFSET	 0.00	2.59758046908119	 0.00
						CHANNELS 3 Zrotation Xrotation Yrotation
						JOINT RightHand
						{
							OFFSET	 0.00	2.45542024364365	 0.00
							CHANNELS 3 Zrotation Xrotation Yrotation
							JOINT RightHandThumb 
							{
								OFFSET	 0.00	0.00	 0.00
								CHANNELS 3 Zrotation Xrotation Yrotation
								End Site
								{
									OFFSET	 0.00	0.00	1.00000003353624
								}
							}
							JOINT R_Wrist_End 
							{
								OFFSET	 0.00	0.99999967115358	 0.00
								CHANNELS 3 Zrotation Xrotation Yrotation
								End Site 
								{
									OFFSET	 0.00	 0.00	 0.00
								}
							}
						}
					}
				}
			}
		}
	}
	JOINT LeftUpLeg
	{
		OFFSET	 1.2719394002717	 0.00	 0.00
		CHANNELS 3 Zrotation Xrotation Yrotation
		JOINT LeftLowLeg
		{
			OFFSET	 0.00	-4.3429100912261	 0.00
			CHANNELS 3 Zrotation Xrotation Yrotation
			JOINT LeftFoot
			{
				OFFSET	 0.00	-4.48767017425826	 0.00
				CHANNELS 3 Zrotation Xrotation Yrotation
				JOINT LeftToeBase
                {
                    OFFSET	 0.00	0.00	 1.51507020887566
                    CHANNELS 3 Zrotation Xrotation Yrotation
                    End Site 
                    {
                        OFFSET	 0.00	0.00	 0.75000010571191
                    }
                }
			}
		}
	}
	JOINT RightUpLeg
	{
		OFFSET	 -1.2719393604653	 0.00	 0.00
		CHANNELS 3 Zrotation Xrotation Yrotation
		JOINT RightLowLeg
		{
			OFFSET	 0.00	-4.3429100912261	 0.00
			CHANNELS 3 Zrotation Xrotation Yrotation
			JOINT RightFoot
			{
				OFFSET	 0.00	-4.48767017425826	 0.00
				CHANNELS 3 Zrotation Xrotation Yrotation
				JOINT RightToeBase
                {
                    OFFSET	 0.00	0.00	 1.51507020887566
                    CHANNELS 3 Zrotation Xrotation Yrotation
                    End Site 
                    {
                        OFFSET	 0.00	0.00	 0.749999965609858
                    }
                }   
			}
		}
	}
}
MOTION 
Frames:	10 
Frame Time: 0.02 
  -0.6963279724121094 1.5060600280761718 7.129639892578125 -138.749 80.7754 -216.013 12.0911 0.886316 7.83312 -13.7616 -13.7366 -7.5892 3.21047 46.6599 -4.18929 -63.6066 -80.6369 321.417 -116.7377 3.73497 15.6318 -36.2844 30.9986 -371.604 0.0 151.174 0.0 32.1392 -25.8405 410.767 0.0 0.0 0.0 0.0 0.0 0.0 122.4823 -4.3737 -7.53592 43.4676 21.0968 -2.79599 0.0 141.527 0.0 -36.0505 3.03951 -19.272 0.0 0.0 0.0 0.0 0.0 0.0 -11.087 -75.2585 -15.9069 0.0 93.8746 0.0 -9.92511 12.967 -3.17051 0.0 -37.1996 0.0 11.8323 -71.3539 -0.559721 0.0 87.6826 0.0 11.748 14.303667 4.3855 0.0 -42.6475 0.0 
  -0.6995549774169922 1.506739959716797 7.12843994140625 -138.302 80.8714 -216.491 11.8583 0.754338 7.86881 -13.5057 -13.7172 -7.58288 3.19925 46.8355 -3.71173 -63.0718 -80.9847 321.362 -116.6868 3.65509 15.4432 -36.0753 31.0766 -371.641 0.0 151.087 0.0 31.9508 -25.9393 410.682 0.0 0.0 0.0 0.0 0.0 0.0 122.5152 -4.29313 -7.65902 43.3215 21.222 -2.70453 0.0 141.547 0.0 -35.379 3.17133 -18.9371 0.0 0.0 0.0 0.0 0.0 0.0 -10.7334 -75.1811 -15.5564 0.0 93.901 0.0 -9.90829 12.98125 -3.21648 0.0 -37.190903 0.0 11.8803 -71.208 -0.622048 0.0 87.6614 0.0 11.542 14.127495 4.19817 0.0 -42.530502 0.0 
  -0.7022889709472656 1.5083599853515626 7.129039916992188 -138.071 80.9317 -216.804 11.5304 0.590456 7.97325 -13.1426 -13.7546 -7.53905 3.53478 47.1844 -3.6 -62.0926 -81.4146 321.945 -116.6728 3.71516 15.2264 -35.7697 31.2477 -371.879 0.0 151.077 0.0 31.7149 -26.3818 410.574 0.0 0.0 0.0 0.0 0.0 0.0 122.5054 -4.28897 -7.72825 43.0588 21.5136 -2.85161 0.0 141.566 0.0 -35.739 3.36851 -19.165 0.0 0.0 0.0 0.0 0.0 0.0 -10.2207 -75.1373 -15.0257 0.0 93.8992 0.0 -9.9073 12.99998 -3.26076 0.0 -37.1625 0.0 12.1381 -71.1017 -0.381718 0.0 87.6129 0.0 11.4965 14.052993 4.1271 0.0 -42.331398 0.0 
  -0.704552993774414 1.5104800415039064 7.1311798095703125 -137.95 80.9582 -217.017 11.2531 0.513507 8.07879 -12.8872 -14.0103 -7.57531 3.98175 47.6543 -3.59099 -59.8028 -81.8137 323.891 -116.5385 3.69176 15.0519 -35.4772 31.4496 -372.13 0.0 151.067 0.0 31.5772 -26.5447 410.371 0.0 0.0 0.0 0.0 0.0 0.0 122.4371 -4.25515 -7.76727 42.9034 21.7205 -3.11908 0.0 141.604 0.0 -36.1695 3.83049 -19.4378 0.0 0.0 0.0 0.0 0.0 0.0 -9.69768 -75.1195 -14.4914 0.0 93.8732 0.0 -9.92663 13.04923 -3.2966 0.0 -37.2157 0.0 12.5094 -71.0259 0.0396138 0.0 87.5353 0.0 11.546 14.056778 4.14392 0.0 -42.1932 0.0 
  -0.7063520050048828 1.5122999572753906 7.133070068359375 -137.767 80.9984 -217.271 10.9069 0.395227 8.16521 -12.5028 -14.233 -7.64878 4.62815 48.179 -3.89199 -56.4564 -82.109 327.065 -116.4953 3.73395 14.9054 -35.1013 31.6376 -372.503 0.0 151.077 0.0 31.6773 -26.6194 410.192 0.0 0.0 0.0 0.0 0.0 0.0 122.4151 -4.2575 -8.02264 42.5805 22.2128 -2.98483 0.0 141.546 0.0 -36.2505 4.38531 -19.4097 0.0 0.0 0.0 0.0 0.0 0.0 -9.28103 -75.0892 -14.0719 0.0 93.8515 0.0 -9.95561 13.11969 -3.35023 0.0 -37.2452 0.0 12.8703 -70.9512 0.529991 0.0 87.4705 0.0 11.7274 14.102873 4.29119 0.0 -42.0732 0.0 
  -0.7068710327148438 1.51427001953125 7.134710083007812 -137.535 81.0242 -217.553 10.6159 0.379621 8.25234 -12.1857 -14.6266 -7.79383 5.4227 48.6768 -4.43376 -51.6529 -82.2245 331.642 -116.384796 3.71018 14.7854 -34.897 31.7778 -372.678 0.0 151.082 0.0 32.1938 -26.4028 410.235 0.0 0.0 0.0 0.0 0.0 0.0 122.2776 -4.17558 -7.94652 42.5447 22.2708 -3.17226 0.0 141.604 0.0 -36.3477 4.83898 -19.985 0.0 0.0 0.0 0.0 0.0 0.0 -9.04333 -75.0695 -13.8617 0.0 93.8403 0.0 -10.0046 13.20812 -3.39472 0.0 -37.2877 0.0 13.1851 -70.9022 1.00777 0.0 87.4237 0.0 12.0212 14.212774 4.52344 0.0 -41.9514 0.0 
  -0.706405029296875 1.516199951171875 7.135579833984375 -137.259 81.0338 -217.858 10.329 0.377128 8.35074 -11.8664 -15.1378 -7.97373 6.463 49.4044 -5.29089 -46.7988 -82.2643 336.282 -116.3466 3.73225 14.7955 -34.7193 31.8633 -372.895 0.0 151.07 0.0 32.6078 -26.3025 410.23 0.0 0.0 0.0 0.0 0.0 0.0 122.2038 -4.18887 -8.0779 42.3981 22.4939 -3.2147 0.0 141.625 0.0 -36.5127 4.78037 -20.3083 0.0 0.0 0.0 0.0 0.0 0.0 -8.95949 -75.0743 -13.8236 0.0 93.8492 0.0 -10.0902 13.31401 -3.42345 0.0 -37.3209 0.0 13.4858 -70.8801 1.48562 0.0 87.3917 0.0 12.3722 14.348087 4.78996 0.0 -41.8681 0.0 
  -0.7055950164794922 1.5176100158691406 7.135079956054687 -137.013 81.0109 -218.104 10.0518 0.333522 8.4384 -11.513 -15.5937 -8.14511 7.47945 50.0902 -6.13626 -42.0359 -82.2316 340.854 -116.3846 3.6794 14.7017 -34.6707 31.9413 -372.976 0.0 151.017 0.0 32.8384 -26.3701 410.275 0.0 0.0 0.0 0.0 0.0 0.0 122.168 -4.23485 -8.11536 42.308 22.5719 -3.05717 0.0 141.538 0.0 -36.1256 5.19567 -20.4205 0.0 0.0 0.0 0.0 0.0 0.0 -9.07645 -75.1291 -14.0317 0.0 93.8972 0.0 -10.2127 13.44248 -3.47789 0.0 -37.2984 0.0 13.8111 -70.8916 2.00486 0.0 87.3934 0.0 12.7535 14.445554 5.07747 0.0 -41.6804 0.0 
  -0.7044999694824219 1.5187899780273437 7.13385009765625 -137.079 80.9158 -218.026 9.76959 0.271166 8.52074 -11.2036 -16.2408 -8.37566 8.65713 51.0301 -7.11526 -37.5607 -82.2107 345.119 -116.4283 3.57309 14.7491 -34.8207 31.9246 -372.932 0.0 150.862 0.0 32.8124 -26.3011 410.059 0.0 0.0 0.0 0.0 0.0 0.0 122.2486 -4.30802 -8.37407 42.062 22.6984 -2.77792 0.0 141.412 0.0 -36.1661 5.45048 -20.7489 0.0 0.0 0.0 0.0 0.0 0.0 -9.3724 -75.2852 -14.4533 0.0 93.9647 0.0 -10.4368 13.59505 -3.57367 0.0 -37.268402 0.0 14.1891 -70.9893 2.57122 0.0 87.4083 0.0 13.2389 14.507622 5.34447 0.0 -41.4449 0.0 
  -0.7035649871826172 1.51875 7.130679931640625 -137.53 80.7788 -217.518 9.37872 0.15259 8.61208 -10.7439 -16.9327 -8.64937 9.84367 51.9485 -8.1881 -33.5111 -82.0565 349.06 -116.5644 3.41375 14.8204 -35.1998 31.8347 -372.853 0.0 150.696 0.0 32.1775 -26.7337 409.477 0.0 0.0 0.0 0.0 0.0 0.0 122.2185 -4.41351 -8.51543 41.9934 22.6115 -2.72364 0.0 141.279 0.0 -36.4488 5.73791 -21.0628 0.0 0.0 0.0 0.0 0.0 0.0 -9.95556 -75.5184 -15.1706 0.0 94.0563 0.0 -10.6864 13.75348 -3.7236 0.0 -37.1967 0.0 14.4921 -71.202 3.06259 0.0 87.5008 0.0 13.6438 14.528232 5.55344 0.0 -41.1973 0.0 
